HIERARCHY
ROOT joint_Root
{
	OFFSET 0.0 0.0 0.0
	CHANNELS 6 Xposition Yposition Zposition Zrotation Xrotation Yrotation 
	JOINT Hips
	{
		OFFSET 4.5925 91.4895 -427.239
		CHANNELS 6 Xposition Yposition Zposition Zrotation Xrotation Yrotation 
		JOINT Spine
		{
			OFFSET 15.7357 0.0 0.0
			CHANNELS 6 Xposition Yposition Zposition Zrotation Xrotation Yrotation 
			JOINT Chest
			{
				OFFSET 8.98455 -0.406207 0.0
				CHANNELS 6 Xposition Yposition Zposition Zrotation Xrotation Yrotation 
				JOINT Neck
				{
					OFFSET 16.3773 0.0 0.0
					CHANNELS 6 Xposition Yposition Zposition Zrotation Xrotation Yrotation 
					JOINT Head
					{
						OFFSET 6.45672 0.0 0.0
						CHANNELS 6 Xposition Yposition Zposition Zrotation Xrotation Yrotation 
						End Site
						{
							OFFSET 0.0 0.0 0.0
						}
					}
				}
				JOINT Shoulder_L
				{
					OFFSET 12.9942 -0.242716 4.98039
					CHANNELS 6 Xposition Yposition Zposition Zrotation Xrotation Yrotation 
					JOINT UpperArm_L
					{
						OFFSET 5.34809 0.0 0.0
						CHANNELS 6 Xposition Yposition Zposition Zrotation Xrotation Yrotation 
						JOINT LowerArm_L
						{
							OFFSET 24.3286 1.87007e-05 0.0
							CHANNELS 6 Xposition Yposition Zposition Zrotation Xrotation Yrotation 
							JOINT Hand_L
							{
								OFFSET 22.2916 0.0 0.0
								CHANNELS 6 Xposition Yposition Zposition Zrotation Xrotation Yrotation 
								End Site
								{
									OFFSET 0.0 0.0 0.0
								}
							}
						}
					}
				}
				JOINT Shoulder_R
				{
					OFFSET 12.9945 -0.242716 -4.98039
					CHANNELS 6 Xposition Yposition Zposition Zrotation Xrotation Yrotation 
					JOINT UpperArm_R
					{
						OFFSET -5.34813 0.0 0.0
						CHANNELS 6 Xposition Yposition Zposition Zrotation Xrotation Yrotation 
						JOINT LowerArm_R
						{
							OFFSET -24.3289 0.000322201 0.0
							CHANNELS 6 Xposition Yposition Zposition Zrotation Xrotation Yrotation 
							JOINT Hand_R
							{
								OFFSET -22.2915 -0.000108084 0.0
								CHANNELS 6 Xposition Yposition Zposition Zrotation Xrotation Yrotation 
								End Site
								{
									OFFSET 0.0 0.0 0.0
								}
							}
						}
					}
				}
			}
		}
		JOINT UpperLeg_L
		{
			OFFSET -2.19248 -6.46944 0.0
			CHANNELS 6 Xposition Yposition Zposition Zrotation Xrotation Yrotation 
			JOINT LowerLeg_L
			{
				OFFSET 39.0811 0.0 -1.23785e-05
				CHANNELS 6 Xposition Yposition Zposition Zrotation Xrotation Yrotation 
				JOINT Foot_L
				{
					OFFSET 40.9854 0.0 -1.26872e-05
					CHANNELS 6 Xposition Yposition Zposition Zrotation Xrotation Yrotation 
					JOINT Toes_L
					{
						OFFSET 11.7543 0.0 0.0
						CHANNELS 6 Xposition Yposition Zposition Zrotation Xrotation Yrotation 
						End Site
						{
							OFFSET 0.0 0.0 0.0
						}
					}
				}
			}
		}
		JOINT UpperLeg_R
		{
			OFFSET -2.19251 6.46944 0.0
			CHANNELS 6 Xposition Yposition Zposition Zrotation Xrotation Yrotation 
			JOINT LowerLeg_R
			{
				OFFSET -39.0811 -0.00228153 -0.0401928
				CHANNELS 6 Xposition Yposition Zposition Zrotation Xrotation Yrotation 
				JOINT Foot_R
				{
					OFFSET -40.9854 0.0 0.0
					CHANNELS 6 Xposition Yposition Zposition Zrotation Xrotation Yrotation 
					JOINT Toes_R
					{
						OFFSET -11.7543 0.0 0.0
						CHANNELS 6 Xposition Yposition Zposition Zrotation Xrotation Yrotation 
						End Site
						{
							OFFSET 0.0 0.0 0.0
						}
					}
				}
			}
		}
	}
}
MOTION
Frames:	8
Frame Time:	0.0333333
0.000000 0.000000 0.000000 0.000000 0.000000 -0.000000 -7.126880 91.335100 0.425873 89.462500 13.600900 3.352050 15.735700 0.000005 -0.000001 94.521000 85.803200 -98.861900 8.984550 -0.406207 -0.000000 0.651601 0.930402 -8.680790 16.377300 -0.000001 -0.000001 8.447400 -8.644160 8.530420 6.456720 -0.000001 -0.000000 -0.536577 -7.790020 2.732020 12.994200 -0.242716 4.980390 -91.627900 4.060220 -68.131000 5.348090 -0.000007 -0.000001 -60.504400 8.265730 -6.485150 24.328600 0.000019 0.000005 5.770960 18.921100 -17.310700 22.291600 -0.000001 0.000005 13.742400 5.124180 4.553630 12.994500 -0.242716 -4.980390 94.159700 -10.004600 -67.284100 -5.348130 -0.000001 -0.000004 -43.724300 -67.196200 -86.425100 -24.328900 0.000322 -0.000009 -2.911340 -2.843040 -45.705700 -22.291500 -0.000108 -0.000004 20.301900 5.571540 -9.766930 -2.192480 -6.469440 -0.000000 -171.550000 -5.789100 -7.986350 39.081100 -0.000007 -0.000012 -0.168379 0.347696 25.839700 40.985400 -0.000006 -0.000013 -3.023340 15.008100 -64.874400 11.754300 -0.000000 0.000003 -0.000066 -0.000722 -16.605500 -2.192510 6.469440 -0.000001 -179.111000 30.501100 178.128000 -39.081100 -0.002282 -0.040193 -0.017187 0.044522 24.722800 -40.985400 0.000008 0.000006 9.489780 8.155880 -71.600200 -11.754300 -0.000006 -0.000006 -0.003220 -0.043071 -18.324800
0.000000 0.000000 0.000000 0.000000 0.000000 -0.000000 -7.007170 91.351500 0.457867 89.486400 13.305900 3.280170 15.735700 0.000005 -0.000001 94.002000 85.811100 -98.215200 8.984550 -0.406207 -0.000000 0.636543 0.846167 -8.425060 16.377300 -0.000001 -0.000001 8.358280 -8.524760 8.518810 6.456720 -0.000001 -0.000000 -0.597367 -7.455320 2.547130 12.994200 -0.242716 4.980390 -91.673900 4.179770 -68.151500 5.348090 -0.000007 -0.000001 -60.660000 9.215000 -6.504390 24.328600 0.000019 0.000005 5.817120 18.676800 -17.647800 22.291600 -0.000001 0.000005 13.744800 5.133970 4.323760 12.994500 -0.242716 -4.980390 94.124200 -9.884430 -67.215400 -5.348130 -0.000001 -0.000004 -43.854900 -67.150100 -86.208000 -24.328900 0.000322 -0.000009 -3.161110 -2.952840 -46.979200 -22.291500 -0.000108 -0.000004 20.276000 5.563380 -9.354570 -2.192480 -6.469440 -0.000000 -171.680000 -5.619850 -7.918920 39.081100 -0.000007 -0.000012 -0.169352 0.350449 25.792000 40.985400 -0.000006 -0.000013 -3.038150 14.495800 -64.955200 11.754300 -0.000000 0.000003 -0.000074 -0.000791 -16.608100 -2.192510 6.469440 -0.000001 -179.241000 30.515000 178.128000 -39.081100 -0.002282 -0.040193 -0.016556 0.043215 24.691200 -40.985400 0.000008 0.000006 9.501540 8.498590 -71.618500 -11.754300 -0.000006 -0.000006 -0.003211 -0.042967 -18.320600
0.000000 0.000000 0.000000 0.000000 0.000000 -0.000000 -6.857070 91.368100 0.474787 89.502100 12.808300 3.220850 15.735700 0.000005 -0.000001 93.475800 85.819200 -97.551500 8.984550 -0.406207 -0.000000 0.620325 0.760493 -8.149440 16.377300 -0.000001 -0.000001 8.180380 -8.309260 8.436670 6.456720 -0.000001 -0.000000 -0.610345 -7.074780 2.339420 12.994200 -0.242716 4.980390 -91.723500 4.297410 -68.121800 5.348090 -0.000007 -0.000001 -60.852200 10.350100 -6.578690 24.328600 0.000019 0.000005 5.974690 18.670200 -18.104100 22.291600 -0.000001 0.000005 13.740000 5.133350 4.338900 12.994500 -0.242716 -4.980390 93.987100 -9.593230 -67.303000 -5.348130 -0.000001 -0.000004 -43.236300 -66.743500 -84.779600 -24.328900 0.000322 -0.000009 -3.924780 -3.389950 -49.228900 -22.291500 -0.000108 -0.000004 20.463700 5.551130 -8.759940 -2.192480 -6.469440 -0.000000 -171.811000 -5.597930 -7.812130 39.081100 -0.000007 -0.000012 -0.169388 0.350961 25.764000 40.985400 -0.000006 -0.000013 -3.024140 13.992500 -65.066800 11.754300 -0.000000 0.000003 -0.000071 -0.000764 -16.607100 -2.192510 6.469440 -0.000001 -179.401000 30.453600 178.110000 -39.081100 -0.002282 -0.040193 -0.017774 0.045861 24.692200 -40.985400 0.000008 0.000006 9.477950 8.936150 -71.626500 -11.754300 -0.000006 -0.000006 -0.003102 -0.041754 -18.271200
0.000000 0.000000 0.000000 0.000000 0.000000 -0.000000 -6.660390 91.379700 0.489046 89.561900 12.218400 3.210300 15.735700 0.000005 -0.000001 92.698900 85.816100 -96.652300 8.984550 -0.406207 -0.000000 0.626960 0.639787 -7.904550 16.377300 -0.000001 -0.000001 7.774340 -8.103280 8.218090 6.456720 -0.000001 -0.000000 -0.411514 -6.756920 2.121300 12.994200 -0.242716 4.980390 -91.742900 4.367200 -68.218300 5.348090 -0.000007 -0.000001 -61.114000 11.716100 -6.614730 24.328600 0.000019 0.000005 6.039240 18.469900 -18.466500 22.291600 -0.000001 0.000005 13.788700 5.136370 4.267640 12.994500 -0.242716 -4.980390 93.745600 -9.103460 -67.521900 -5.348130 -0.000001 -0.000004 -42.036200 -65.802400 -82.130500 -24.328900 0.000322 -0.000009 -5.411860 -4.134940 -52.711700 -22.291500 -0.000108 -0.000004 20.553000 5.538450 -8.173360 -2.192480 -6.469440 -0.000000 -171.999000 -5.656230 -7.633320 39.081100 -0.000007 -0.000012 -0.172042 0.356614 25.754300 40.985400 -0.000006 -0.000013 -2.987450 13.462500 -65.201400 11.754300 -0.000000 0.000003 -0.000080 -0.000852 -16.610400 -2.192510 6.469440 -0.000001 -179.665000 30.314000 178.117000 -39.081100 -0.002282 -0.040193 -0.019077 0.048504 24.778200 -40.985400 0.000008 0.000006 9.419490 9.406110 -71.661700 -11.754300 -0.000006 -0.000006 -0.003237 -0.043260 -18.332500
0.000000 0.000000 0.000000 0.000000 0.000000 -0.000000 -6.422380 91.389600 0.496438 89.612600 11.508500 3.223240 15.735700 0.000005 -0.000001 91.390400 85.816900 -95.203300 8.984550 -0.406207 -0.000000 0.623800 0.440227 -7.622610 16.377300 -0.000001 -0.000001 7.209240 -7.836110 7.810610 6.456720 -0.000001 -0.000000 -0.123552 -6.272740 1.781520 12.994200 -0.242716 4.980390 -91.784300 4.488420 -68.294600 5.348090 -0.000007 -0.000001 -61.418300 13.180500 -6.718950 24.328600 0.000019 0.000005 6.081610 18.459100 -18.597800 22.291600 -0.000001 0.000005 13.809000 5.139510 4.192920 12.994500 -0.242716 -4.980390 93.332500 -8.302090 -68.037900 -5.348130 -0.000001 -0.000004 -40.120700 -64.304800 -78.236900 -24.328900 0.000322 -0.000009 -6.516700 -4.187330 -57.404900 -22.291500 -0.000108 -0.000004 20.711000 5.524610 -7.560750 -2.192480 -6.469440 -0.000000 -172.219000 -5.865480 -7.453640 39.081100 -0.000007 -0.000012 -0.169433 0.350287 25.813200 40.985400 -0.000006 -0.000013 -2.905640 12.886200 -65.368000 11.754300 -0.000000 0.000003 -0.000082 -0.000864 -16.610800 -2.192510 6.469440 -0.000001 -179.937000 29.934700 178.101000 -39.081100 -0.002282 -0.040193 -0.021231 0.052874 24.899800 -40.985400 0.000008 0.000006 9.248490 9.812420 -71.655600 -11.754300 -0.000006 -0.000006 -0.002813 -0.038465 -18.137400
0.000000 0.000000 0.000000 0.000000 0.000000 -0.000000 -6.144500 91.395600 0.522438 89.638400 10.741300 3.292840 15.735700 0.000005 -0.000001 89.732600 85.811900 -93.389400 8.984550 -0.406207 -0.000000 0.626616 0.188435 -7.309080 16.377300 -0.000001 -0.000001 6.694820 -7.469590 7.222250 6.456720 -0.000001 -0.000000 -0.130923 -5.767220 1.498780 12.994200 -0.242716 4.980390 -91.830900 4.632180 -68.405400 5.348090 -0.000007 -0.000001 -61.781200 14.797100 -6.883690 24.328600 0.000019 0.000005 6.132380 18.643200 -18.577200 22.291600 -0.000001 0.000005 13.681400 5.139360 4.196080 12.994500 -0.242716 -4.980390 92.844900 -7.342310 -68.752200 -5.348130 -0.000001 -0.000004 -37.889300 -62.031900 -73.043700 -24.328900 0.000322 -0.000009 -7.098830 -3.558790 -63.502400 -22.291500 -0.000108 -0.000004 20.671300 5.509840 -6.934530 -2.192480 -6.469440 -0.000000 -172.409000 -6.153600 -7.205730 39.081100 -0.000007 -0.000012 -0.171448 0.353067 25.901300 40.985400 -0.000006 -0.000013 -2.781680 12.416600 -65.582700 11.754300 -0.000000 0.000003 -0.000090 -0.000937 -16.613600 -2.192510 6.469440 -0.000001 179.767000 29.475100 178.148000 -39.081100 -0.002282 -0.040193 -0.024830 0.060265 25.031700 -40.985400 0.000008 0.000006 9.101310 10.179600 -71.662900 -11.754300 -0.000006 -0.000006 -0.002856 -0.038963 -18.157600
0.000000 0.000000 0.000000 0.000000 0.000000 -0.000000 -5.816540 91.406000 0.549189 89.679900 9.880130 3.372750 15.735700 0.000005 -0.000001 88.458400 85.803000 -91.953300 8.984550 -0.406207 -0.000000 0.634229 -0.008515 -6.984560 16.377300 -0.000001 -0.000001 6.106490 -7.068400 6.509230 6.456720 -0.000001 -0.000000 -0.234697 -5.312270 1.306400 12.994200 -0.242716 4.980390 -91.882900 4.788300 -68.504000 5.348090 -0.000007 -0.000001 -62.223500 16.761400 -7.315730 24.328600 0.000019 0.000005 6.027210 18.705600 -18.222600 22.291600 -0.000001 0.000005 13.582500 5.134720 4.306140 12.994500 -0.242716 -4.980390 92.336300 -6.341430 -69.728200 -5.348130 -0.000001 -0.000004 -35.123400 -58.984100 -66.101100 -24.328900 0.000322 -0.000009 -7.120070 -2.476490 -70.918400 -22.291500 -0.000108 -0.000004 20.411300 5.488960 -6.094810 -2.192480 -6.469440 -0.000000 -172.637000 -6.544920 -6.901820 39.081100 -0.000007 -0.000012 -0.172829 0.354931 25.963400 40.985400 -0.000006 -0.000013 -2.626900 11.941800 -65.808000 11.754300 -0.000000 0.000003 -0.000091 -0.000950 -16.614100 -2.192510 6.469440 -0.000001 179.412000 28.877600 178.213000 -39.081100 -0.002282 -0.040193 -0.032017 0.075253 25.148500 -40.985400 0.000008 0.000006 8.791590 10.550600 -71.616800 -11.754300 -0.000006 -0.000006 -0.002697 -0.037126 -18.082900
0.000000 0.000000 0.000000 0.000000 0.000000 -0.000000 -5.466000 91.416100 0.563150 89.703300 8.990570 3.456390 15.735700 0.000005 -0.000001 87.260600 85.788900 -90.592000 8.984550 -0.406207 -0.000000 0.649600 -0.195746 -6.656550 16.377300 -0.000001 -0.000001 5.463350 -6.611720 5.767140 6.456720 -0.000001 -0.000000 -0.373219 -4.864040 1.179960 12.994200 -0.242716 4.980390 -91.942700 4.958840 -68.575300 5.348090 -0.000007 -0.000001 -62.767700 18.403600 -7.835650 24.328600 0.000019 0.000005 5.882080 18.570100 -17.926300 22.291600 -0.000001 0.000005 13.328300 5.135890 4.278600 12.994500 -0.242716 -4.980390 91.763300 -5.085970 -70.852400 -5.348130 -0.000001 -0.000004 -32.020200 -54.770900 -58.025300 -24.328900 0.000322 -0.000009 -6.686890 -1.338090 -78.735000 -22.291500 -0.000108 -0.000004 20.358400 5.469180 -5.340770 -2.192480 -6.469440 -0.000000 -172.883000 -6.920650 -6.623300 39.081100 -0.000007 -0.000012 -0.171064 0.349838 26.057900 40.985400 -0.000006 -0.000013 -2.462230 11.385400 -66.044200 11.754300 -0.000000 0.000003 -0.000089 -0.000930 -16.613300 -2.192510 6.469440 -0.000001 179.088000 28.251500 178.238000 -39.081100 -0.002282 -0.040193 -0.037399 0.086207 25.278300 -40.985400 0.000008 0.000006 8.546370 10.922900 -71.566800 -11.754300 -0.000006 -0.000006 -0.002619 -0.036218 -18.045900
